<svg width="125" height="50" viewBox="0 0 125 50" fill="none" xmlns="http://www.w3.org/2000/svg">
<circle cx="25.5" cy="25" r="25" fill="#3A0CA3"/>
<g clip-path="url(#clip0_0_426)">
<path d="M37.215 22.165L25.965 13.165C25.832 13.0585 25.6667 13.0005 25.4963 13.0005C25.3258 13.0005 25.1605 13.0585 25.0275 13.165L13.7775 22.165C13.6561 22.2624 13.5681 22.3951 13.5255 22.5447C13.4829 22.6944 13.4879 22.8536 13.5398 23.0003C13.5917 23.1469 13.688 23.2738 13.8152 23.3634C13.9425 23.4529 14.0944 23.5007 14.25 23.5H15.75V36.25C15.75 36.4489 15.829 36.6397 15.9697 36.7803C16.1103 36.921 16.3011 37 16.5 37H31.5V35.5H28.5V28.75C28.5 28.5511 28.421 28.3603 28.2803 28.2197C28.1397 28.079 27.9489 28 27.75 28H23.25C23.0511 28 22.8603 28.079 22.7197 28.2197C22.579 28.3603 22.5 28.5511 22.5 28.75V35.5H17.25V23.5H30V22H16.3875L25.5 14.71L34.6125 22H34.5C34.3011 22 34.1103 22.079 33.9697 22.2197C33.829 22.3603 33.75 22.5511 33.75 22.75V27.25H35.25V23.5H36.75C36.905 23.4991 37.0558 23.4503 37.1819 23.3601C37.3079 23.27 37.403 23.1431 37.4539 22.9967C37.5049 22.8504 37.5093 22.6919 37.4665 22.5429C37.4237 22.394 37.3359 22.262 37.215 22.165ZM24 29.5H27V35.5H24V29.5Z" fill="white"/>
<path d="M32.25 32.9426L31.2825 31.9751L30.225 33.0326L31.725 34.5326C31.8655 34.6723 32.0556 34.7507 32.2538 34.7507C32.4519 34.7507 32.642 34.6723 32.7825 34.5326L37.2825 30.0326L36.225 28.9751L32.25 32.9426Z" fill="white"/>
</g>
<path d="M67.08 32L64 26.56H62.68V32H59.88V18.04H65.12C66.2 18.04 67.12 18.2333 67.88 18.62C68.64 18.9933 69.2067 19.5067 69.58 20.16C69.9667 20.8 70.16 21.52 70.16 22.32C70.16 23.24 69.8933 24.0733 69.36 24.82C68.8267 25.5533 68.0333 26.06 66.98 26.34L70.32 32H67.08ZM62.68 24.46H65.02C65.78 24.46 66.3467 24.28 66.72 23.92C67.0933 23.5467 67.28 23.0333 67.28 22.38C67.28 21.74 67.0933 21.2467 66.72 20.9C66.3467 20.54 65.78 20.36 65.02 20.36H62.68V24.46ZM82.9925 26.22C82.9925 26.62 82.9658 26.98 82.9125 27.3H74.8125C74.8792 28.1 75.1592 28.7267 75.6525 29.18C76.1458 29.6333 76.7525 29.86 77.4725 29.86C78.5125 29.86 79.2525 29.4133 79.6925 28.52H82.7125C82.3925 29.5867 81.7792 30.4667 80.8725 31.16C79.9658 31.84 78.8525 32.18 77.5325 32.18C76.4658 32.18 75.5058 31.9467 74.6525 31.48C73.8125 31 73.1525 30.3267 72.6725 29.46C72.2058 28.5933 71.9725 27.5933 71.9725 26.46C71.9725 25.3133 72.2058 24.3067 72.6725 23.44C73.1392 22.5733 73.7925 21.9067 74.6325 21.44C75.4725 20.9733 76.4392 20.74 77.5325 20.74C78.5858 20.74 79.5258 20.9667 80.3525 21.42C81.1925 21.8733 81.8392 22.52 82.2925 23.36C82.7592 24.1867 82.9925 25.14 82.9925 26.22ZM80.0925 25.42C80.0792 24.7 79.8192 24.1267 79.3125 23.7C78.8058 23.26 78.1858 23.04 77.4525 23.04C76.7592 23.04 76.1725 23.2533 75.6925 23.68C75.2258 24.0933 74.9392 24.6733 74.8325 25.42H80.0925ZM87.5963 29.7H92.5363V32H84.4163V29.74L89.2563 23.22H84.4363V20.92H92.4763V23.18L87.5963 29.7ZM96.1242 19.6C95.6309 19.6 95.2176 19.4467 94.8842 19.14C94.5642 18.82 94.4042 18.4267 94.4042 17.96C94.4042 17.4933 94.5642 17.1067 94.8842 16.8C95.2176 16.48 95.6309 16.32 96.1242 16.32C96.6176 16.32 97.0242 16.48 97.3442 16.8C97.6776 17.1067 97.8442 17.4933 97.8442 17.96C97.8442 18.4267 97.6776 18.82 97.3442 19.14C97.0242 19.4467 96.6176 19.6 96.1242 19.6ZM97.5042 20.92V32H94.7042V20.92H97.5042ZM103.071 17.2V32H100.271V17.2H103.071ZM108.637 17.2V32H105.837V17.2H108.637ZM110.683 26.42C110.683 25.3 110.903 24.3067 111.343 23.44C111.797 22.5733 112.403 21.9067 113.163 21.44C113.937 20.9733 114.797 20.74 115.743 20.74C116.57 20.74 117.29 20.9067 117.903 21.24C118.53 21.5733 119.03 21.9933 119.403 22.5V20.92H122.223V32H119.403V30.38C119.043 30.9 118.543 31.3333 117.903 31.68C117.277 32.0133 116.55 32.18 115.723 32.18C114.79 32.18 113.937 31.94 113.163 31.46C112.403 30.98 111.797 30.3067 111.343 29.44C110.903 28.56 110.683 27.5533 110.683 26.42ZM119.403 26.46C119.403 25.78 119.27 25.2 119.003 24.72C118.737 24.2267 118.377 23.8533 117.923 23.6C117.47 23.3333 116.983 23.2 116.463 23.2C115.943 23.2 115.463 23.3267 115.023 23.58C114.583 23.8333 114.223 24.2067 113.943 24.7C113.677 25.18 113.543 25.7533 113.543 26.42C113.543 27.0867 113.677 27.6733 113.943 28.18C114.223 28.6733 114.583 29.0533 115.023 29.32C115.477 29.5867 115.957 29.72 116.463 29.72C116.983 29.72 117.47 29.5933 117.923 29.34C118.377 29.0733 118.737 28.7 119.003 28.22C119.27 27.7267 119.403 27.14 119.403 26.46Z" fill="#1E1E1E"/>
<defs>
<clipPath id="clip0_0_426">
<rect width="24" height="24" fill="white" transform="translate(13.5 13)"/>
</clipPath>
</defs>
</svg>
